# Blender v2.90.1 OBJ File: 'asphalt.blend'
# www.blender.org
mtllib asphalt.mtl
o Plane_Plane.001
v -1.000000 -0.005000 1.000000
v 1.000000 -0.005000 1.000000
v -1.000000 -0.005000 -1.000000
v 1.000000 -0.005000 -1.000000
v -1.000000 0.005000 -1.000000
v -1.000000 0.005000 1.000000
v 1.000000 0.005000 1.000000
v 1.000000 0.005000 -1.000000
v -1.000000 -0.005000 0.000000
v 0.000000 -0.005000 1.000000
v 1.000000 -0.005000 0.000000
v 0.000000 -0.005000 -1.000000
v -1.000000 0.005000 0.000000
v 0.000000 0.005000 1.000000
v 1.000000 0.005000 0.000000
v 0.000000 0.005000 -1.000000
v -1.000000 0.000000 -1.000000
v 1.000000 0.000000 -1.000000
v 1.000000 0.000000 1.000000
v -1.000000 0.000000 1.000000
v 0.000000 -0.005000 0.000000
v 0.000000 0.005000 0.000000
v 0.000000 0.000000 -1.000000
v 0.000000 0.000000 1.000000
v 1.000000 0.000000 0.000000
v -1.000000 0.000000 0.000000
v -1.000000 -0.005000 0.500000
v 0.500000 -0.005000 1.000000
v 1.000000 -0.005000 -0.500000
v -0.500000 -0.005000 -1.000000
v -1.000000 0.005000 0.500000
v 0.500000 0.005000 1.000000
v 1.000000 0.005000 -0.500000
v -0.500000 0.005000 -1.000000
v -1.000000 0.002500 -1.000000
v 1.000000 -0.002500 -1.000000
v 1.000000 0.002500 1.000000
v -1.000000 -0.002500 1.000000
v -0.500000 -0.005000 -0.500000
v 0.500000 0.005000 0.500000
v -0.500000 -0.002500 -1.000000
v 0.500000 -0.002500 1.000000
v 1.000000 -0.002500 -0.500000
v -1.000000 -0.002500 0.500000
v -1.000000 -0.005000 -0.500000
v -0.500000 -0.005000 1.000000
v 1.000000 -0.005000 0.500000
v 0.500000 -0.005000 -1.000000
v -1.000000 0.005000 -0.500000
v -0.500000 0.005000 1.000000
v 1.000000 0.005000 0.500000
v 0.500000 0.005000 -1.000000
v -1.000000 -0.002500 -1.000000
v 1.000000 0.002500 -1.000000
v 1.000000 -0.002500 1.000000
v -1.000000 0.002500 1.000000
v 0.500000 -0.005000 0.500000
v -0.500000 0.005000 -0.500000
v 0.500000 0.002500 -1.000000
v -0.500000 0.002500 1.000000
v 1.000000 0.002500 0.500000
v -1.000000 0.002500 -0.500000
v -1.000000 0.002500 0.000000
v -1.000000 0.000000 0.500000
v -1.000000 0.002500 0.500000
v 1.000000 0.002500 0.000000
v 1.000000 0.000000 -0.500000
v 1.000000 0.002500 -0.500000
v 0.000000 0.002500 1.000000
v 0.500000 0.000000 1.000000
v 0.500000 0.002500 1.000000
v 0.000000 0.002500 -1.000000
v -0.500000 0.000000 -1.000000
v -0.500000 0.002500 -1.000000
v 0.000000 0.005000 -0.500000
v 0.500000 0.005000 0.000000
v 0.500000 0.005000 -0.500000
v 0.500000 -0.005000 0.000000
v 0.000000 -0.005000 -0.500000
v 0.500000 -0.005000 -0.500000
v -1.000000 -0.002500 -0.500000
v -1.000000 -0.002500 0.000000
v -1.000000 0.000000 -0.500000
v 1.000000 -0.002500 0.500000
v 1.000000 -0.002500 0.000000
v 1.000000 0.000000 0.500000
v -0.500000 -0.002500 1.000000
v 0.000000 -0.002500 1.000000
v -0.500000 0.000000 1.000000
v 0.500000 -0.002500 -1.000000
v 0.000000 -0.002500 -1.000000
v 0.500000 0.000000 -1.000000
v -0.500000 0.005000 0.500000
v 0.000000 0.005000 0.500000
v -0.500000 0.005000 0.000000
v -0.500000 -0.005000 0.500000
v -0.500000 -0.005000 0.000000
v 0.000000 -0.005000 0.500000
vt 0.507426 0.106347
vt 0.629294 0.290696
vt 0.507426 0.290696
vt 0.011446 0.843847
vt 0.133314 0.659497
vt 0.133314 0.843847
vt 0.498850 0.093580
vt 0.376999 0.096798
vt 0.376982 0.093580
vt 0.011514 0.856716
vt 0.133365 0.853499
vt 0.133382 0.856716
vt 0.002938 0.106553
vt 0.005065 0.290876
vt 0.002938 0.290902
vt 0.507426 0.843744
vt 0.505299 0.659420
vt 0.507426 0.659394
vt 0.629294 0.106347
vt 0.011446 0.659497
vt 0.498867 0.096798
vt 0.011497 0.853499
vt 0.005065 0.106527
vt 0.505299 0.843769
vt 0.503172 0.475097
vt 0.501045 0.475122
vt 0.501045 0.290773
vt 0.503172 0.659446
vt 0.503172 0.843795
vt 0.501045 0.843821
vt 0.501045 0.659472
vt 0.007192 0.475200
vt 0.009319 0.475174
vt 0.009319 0.659523
vt 0.007192 0.290851
vt 0.007192 0.106501
vt 0.009319 0.106476
vt 0.009319 0.290825
vt 0.255216 0.850282
vt 0.255199 0.847064
vt 0.377067 0.847064
vt 0.133348 0.850282
vt 0.011480 0.850282
vt 0.011463 0.847064
vt 0.133331 0.847064
vt 0.255148 0.100015
vt 0.255165 0.103232
vt 0.133297 0.103232
vt 0.377016 0.100015
vt 0.498884 0.100015
vt 0.498901 0.103232
vt 0.377033 0.103232
vt 0.255182 0.475148
vt 0.255182 0.290799
vt 0.377050 0.290799
vt 0.133314 0.475148
vt 0.011446 0.475148
vt 0.011446 0.290799
vt 0.133314 0.290799
vt 0.751162 0.475045
vt 0.873031 0.475045
vt 0.873031 0.659394
vt 0.751162 0.290696
vt 0.751162 0.106347
vt 0.873031 0.106347
vt 0.873031 0.290696
vt 0.507426 0.475045
vt 0.505299 0.290722
vt 0.505299 0.475071
vt 0.503172 0.290747
vt 0.002938 0.475251
vt 0.005065 0.659575
vt 0.002938 0.659601
vt 0.005065 0.475226
vt 0.007192 0.659549
vt 0.255250 0.856716
vt 0.377101 0.853499
vt 0.377118 0.856716
vt 0.255233 0.853499
vt 0.377084 0.850281
vt 0.255114 0.093580
vt 0.133263 0.096798
vt 0.133246 0.093580
vt 0.255131 0.096798
vt 0.133280 0.100015
vt 0.255182 0.843847
vt 0.377050 0.659497
vt 0.377050 0.843847
vt 0.255182 0.659497
vt 0.377050 0.475148
vt 0.629294 0.659394
vt 0.629294 0.475045
vt 0.751162 0.659394
vt 0.873031 0.843744
vt 0.751162 0.843744
vt 0.994899 0.843744
vt 0.629294 0.843744
vt 0.498918 0.290799
vt 0.498918 0.475148
vt 0.498918 0.106450
vt 0.498918 0.659497
vt 0.498918 0.843847
vt 0.011428 0.103232
vt 0.011411 0.100015
vt 0.011446 0.106450
vt 0.011394 0.096798
vt 0.011377 0.093580
vt 0.498935 0.847064
vt 0.498952 0.850281
vt 0.498969 0.853499
vt 0.498986 0.856716
vt 0.009319 0.843873
vt 0.007192 0.843898
vt 0.005065 0.843924
vt 0.002938 0.843950
vt 0.501045 0.106424
vt 0.503172 0.106398
vt 0.505299 0.106372
vt 0.994899 0.290696
vt 0.994899 0.475045
vt 0.994899 0.106347
vt 0.994899 0.659394
vt 0.133314 0.106450
vt 0.255182 0.106450
vt 0.377050 0.106450
vn 0.0000 -1.0000 0.0000
vn 0.0000 1.0000 0.0000
vn 0.0000 0.0000 -1.0000
vn 0.0000 0.0000 1.0000
vn 1.0000 0.0000 0.0000
vn -1.0000 0.0000 0.0000
usemtl Asphalt
s off
f 3/1/1 39/2/1 45/3/1
f 7/4/2 40/5/2 32/6/2
f 3/7/3 41/8/3 30/9/3
f 2/10/4 42/11/4 28/12/4
f 4/13/5 43/14/5 29/15/5
f 1/16/6 44/17/6 27/18/6
f 3/1/1 30/19/1 39/2/1
f 7/4/2 51/20/2 40/5/2
f 3/7/3 53/21/3 41/8/3
f 2/10/4 55/22/4 42/11/4
f 4/13/5 36/23/5 43/14/5
f 1/16/6 38/24/6 44/17/6
f 26/25/6 63/26/6 62/27/6
f 26/25/6 64/28/6 63/26/6
f 20/29/6 56/30/6 65/31/6
f 25/32/5 66/33/5 61/34/5
f 25/32/5 67/35/5 66/33/5
f 18/36/5 54/37/5 68/38/5
f 24/39/4 69/40/4 60/41/4
f 24/39/4 70/42/4 69/40/4
f 19/43/4 37/44/4 71/45/4
f 23/46/3 72/47/3 59/48/3
f 23/46/3 73/49/3 72/47/3
f 17/50/3 35/51/3 74/52/3
f 22/53/2 75/54/2 58/55/2
f 22/53/2 76/56/2 75/54/2
f 15/57/2 33/58/2 77/59/2
f 21/60/1 78/61/1 57/62/1
f 21/60/1 79/63/1 78/61/1
f 12/64/1 48/65/1 80/66/1
f 9/67/6 81/68/6 45/3/6
f 9/67/6 82/69/6 81/68/6
f 26/25/6 62/27/6 83/70/6
f 11/71/5 84/72/5 47/73/5
f 11/71/5 85/74/5 84/72/5
f 25/32/5 61/34/5 86/75/5
f 10/76/4 87/77/4 46/78/4
f 10/76/4 88/79/4 87/77/4
f 24/39/4 60/41/4 89/80/4
f 12/81/3 90/82/3 48/83/3
f 12/81/3 91/84/3 90/82/3
f 23/46/3 59/48/3 92/85/3
f 14/86/2 93/87/2 50/88/2
f 14/86/2 94/89/2 93/87/2
f 22/53/2 58/55/2 95/90/2
f 9/67/1 96/91/1 27/18/1
f 9/67/1 97/92/1 96/91/1
f 21/60/1 57/62/1 98/93/1
f 98/93/1 28/94/1 10/95/1
f 98/93/1 57/62/1 28/94/1
f 57/62/1 2/96/1 28/94/1
f 96/91/1 98/93/1 10/95/1
f 96/91/1 97/92/1 98/93/1
f 97/92/1 21/60/1 98/93/1
f 27/18/1 46/97/1 1/16/1
f 27/18/1 96/91/1 46/97/1
f 96/91/1 10/95/1 46/97/1
f 95/90/2 49/98/2 13/99/2
f 95/90/2 58/55/2 49/98/2
f 58/55/2 5/100/2 49/98/2
f 93/87/2 95/90/2 13/99/2
f 93/87/2 94/89/2 95/90/2
f 94/89/2 22/53/2 95/90/2
f 50/88/2 31/101/2 6/102/2
f 50/88/2 93/87/2 31/101/2
f 93/87/2 13/99/2 31/101/2
f 92/85/3 54/103/3 18/104/3
f 92/85/3 59/48/3 54/103/3
f 59/48/3 8/105/3 54/103/3
f 90/82/3 92/85/3 18/104/3
f 90/82/3 91/84/3 92/85/3
f 91/84/3 23/46/3 92/85/3
f 48/83/3 36/106/3 4/107/3
f 48/83/3 90/82/3 36/106/3
f 90/82/3 18/104/3 36/106/3
f 89/80/4 56/108/4 20/109/4
f 89/80/4 60/41/4 56/108/4
f 60/41/4 6/102/4 56/108/4
f 87/77/4 89/80/4 20/109/4
f 87/77/4 88/79/4 89/80/4
f 88/79/4 24/39/4 89/80/4
f 46/78/4 38/110/4 1/111/4
f 46/78/4 87/77/4 38/110/4
f 87/77/4 20/109/4 38/110/4
f 86/75/5 37/112/5 19/113/5
f 86/75/5 61/34/5 37/112/5
f 61/34/5 7/4/5 37/112/5
f 84/72/5 86/75/5 19/113/5
f 84/72/5 85/74/5 86/75/5
f 85/74/5 25/32/5 86/75/5
f 47/73/5 55/114/5 2/115/5
f 47/73/5 84/72/5 55/114/5
f 84/72/5 19/113/5 55/114/5
f 83/70/6 35/116/6 17/117/6
f 83/70/6 62/27/6 35/116/6
f 62/27/6 5/100/6 35/116/6
f 81/68/6 83/70/6 17/117/6
f 81/68/6 82/69/6 83/70/6
f 82/69/6 26/25/6 83/70/6
f 45/3/6 53/118/6 3/1/6
f 45/3/6 81/68/6 53/118/6
f 81/68/6 17/117/6 53/118/6
f 80/66/1 29/119/1 11/120/1
f 80/66/1 48/65/1 29/119/1
f 48/65/1 4/121/1 29/119/1
f 78/61/1 80/66/1 11/120/1
f 78/61/1 79/63/1 80/66/1
f 79/63/1 12/64/1 80/66/1
f 57/62/1 47/122/1 2/96/1
f 57/62/1 78/61/1 47/122/1
f 78/61/1 11/120/1 47/122/1
f 77/59/2 52/123/2 16/124/2
f 77/59/2 33/58/2 52/123/2
f 33/58/2 8/105/2 52/123/2
f 75/54/2 77/59/2 16/124/2
f 75/54/2 76/56/2 77/59/2
f 76/56/2 15/57/2 77/59/2
f 58/55/2 34/125/2 5/100/2
f 58/55/2 75/54/2 34/125/2
f 75/54/2 16/124/2 34/125/2
f 74/52/3 34/125/3 16/124/3
f 74/52/3 35/51/3 34/125/3
f 35/51/3 5/100/3 34/125/3
f 72/47/3 74/52/3 16/124/3
f 72/47/3 73/49/3 74/52/3
f 73/49/3 17/50/3 74/52/3
f 59/48/3 52/123/3 8/105/3
f 59/48/3 72/47/3 52/123/3
f 72/47/3 16/124/3 52/123/3
f 71/45/4 32/6/4 14/86/4
f 71/45/4 37/44/4 32/6/4
f 37/44/4 7/4/4 32/6/4
f 69/40/4 71/45/4 14/86/4
f 69/40/4 70/42/4 71/45/4
f 70/42/4 19/43/4 71/45/4
f 60/41/4 50/88/4 6/102/4
f 60/41/4 69/40/4 50/88/4
f 69/40/4 14/86/4 50/88/4
f 68/38/5 33/58/5 15/57/5
f 68/38/5 54/37/5 33/58/5
f 54/37/5 8/105/5 33/58/5
f 66/33/5 68/38/5 15/57/5
f 66/33/5 67/35/5 68/38/5
f 67/35/5 18/36/5 68/38/5
f 61/34/5 51/20/5 7/4/5
f 61/34/5 66/33/5 51/20/5
f 66/33/5 15/57/5 51/20/5
f 65/31/6 31/101/6 13/99/6
f 65/31/6 56/30/6 31/101/6
f 56/30/6 6/102/6 31/101/6
f 63/26/6 65/31/6 13/99/6
f 63/26/6 64/28/6 65/31/6
f 64/28/6 20/29/6 65/31/6
f 62/27/6 49/98/6 5/100/6
f 62/27/6 63/26/6 49/98/6
f 63/26/6 13/99/6 49/98/6
f 44/17/6 64/28/6 26/25/6
f 44/17/6 38/24/6 64/28/6
f 38/24/6 20/29/6 64/28/6
f 43/14/5 67/35/5 25/32/5
f 43/14/5 36/23/5 67/35/5
f 36/23/5 18/36/5 67/35/5
f 42/11/4 70/42/4 24/39/4
f 42/11/4 55/22/4 70/42/4
f 55/22/4 19/43/4 70/42/4
f 41/8/3 73/49/3 23/46/3
f 41/8/3 53/21/3 73/49/3
f 53/21/3 17/50/3 73/49/3
f 40/5/2 76/56/2 22/53/2
f 40/5/2 51/20/2 76/56/2
f 51/20/2 15/57/2 76/56/2
f 39/2/1 79/63/1 21/60/1
f 39/2/1 30/19/1 79/63/1
f 30/19/1 12/64/1 79/63/1
f 27/18/6 82/69/6 9/67/6
f 27/18/6 44/17/6 82/69/6
f 44/17/6 26/25/6 82/69/6
f 29/15/5 85/74/5 11/71/5
f 29/15/5 43/14/5 85/74/5
f 43/14/5 25/32/5 85/74/5
f 28/12/4 88/79/4 10/76/4
f 28/12/4 42/11/4 88/79/4
f 42/11/4 24/39/4 88/79/4
f 30/9/3 91/84/3 12/81/3
f 30/9/3 41/8/3 91/84/3
f 41/8/3 23/46/3 91/84/3
f 32/6/2 94/89/2 14/86/2
f 32/6/2 40/5/2 94/89/2
f 40/5/2 22/53/2 94/89/2
f 45/3/1 97/92/1 9/67/1
f 45/3/1 39/2/1 97/92/1
f 39/2/1 21/60/1 97/92/1
